<mxfile host="app.diagrams.net" modified="2020-12-29T04:13:56.804Z" agent="5.0 (Windows NT 10.0; Win64; x64) AppleWebKit/537.36 (KHTML, like Gecko) Chrome/87.0.4280.88 Safari/537.36" etag="AsnY64xorHhzC6yXQE5k" version="14.1.3" type="github">
  <diagram id="m4r_sEA798e7vU3h49Gg" name="Page-1">
    <mxGraphModel dx="1360" dy="745" grid="1" gridSize="10" guides="1" tooltips="1" connect="1" arrows="1" fold="1" page="1" pageScale="1" pageWidth="1100" pageHeight="850" math="0" shadow="0">
      <root>
        <mxCell id="0" />
        <mxCell id="1" parent="0" />
        <mxCell id="t5k42LL-5QC9sisi8yzs-1" value="Sensor" style="ellipse;whiteSpace=wrap;html=1;aspect=fixed;fillColor=#d5e8d4;strokeColor=#82b366;fontFamily=Verdana;fontSize=15;" vertex="1" parent="1">
          <mxGeometry x="130" y="130" width="80" height="80" as="geometry" />
        </mxCell>
        <mxCell id="t5k42LL-5QC9sisi8yzs-2" value="" style="verticalLabelPosition=bottom;shadow=0;dashed=0;align=center;html=1;verticalAlign=top;shape=mxgraph.electrical.radio.aerial_-_antenna_2;fillColor=#d5e8d4;strokeColor=#82b366;fontFamily=Verdana;" vertex="1" parent="1">
          <mxGeometry x="160" y="80" width="20" height="50" as="geometry" />
        </mxCell>
        <mxCell id="t5k42LL-5QC9sisi8yzs-4" value="Sensor" style="ellipse;whiteSpace=wrap;html=1;aspect=fixed;fillColor=#d5e8d4;strokeColor=#82b366;fontFamily=Verdana;fontSize=15;" vertex="1" parent="1">
          <mxGeometry x="130" y="330" width="80" height="80" as="geometry" />
        </mxCell>
        <mxCell id="t5k42LL-5QC9sisi8yzs-5" value="" style="verticalLabelPosition=bottom;shadow=0;dashed=0;align=center;html=1;verticalAlign=top;shape=mxgraph.electrical.radio.aerial_-_antenna_2;fillColor=#d5e8d4;strokeColor=#82b366;fontFamily=Verdana;" vertex="1" parent="1">
          <mxGeometry x="160" y="280" width="20" height="50" as="geometry" />
        </mxCell>
        <mxCell id="t5k42LL-5QC9sisi8yzs-6" value="Sensor" style="ellipse;whiteSpace=wrap;html=1;aspect=fixed;fillColor=#d5e8d4;strokeColor=#82b366;fontFamily=Verdana;fontSize=15;" vertex="1" parent="1">
          <mxGeometry x="130" y="530" width="80" height="80" as="geometry" />
        </mxCell>
        <mxCell id="t5k42LL-5QC9sisi8yzs-7" value="" style="verticalLabelPosition=bottom;shadow=0;dashed=0;align=center;html=1;verticalAlign=top;shape=mxgraph.electrical.radio.aerial_-_antenna_2;fillColor=#d5e8d4;strokeColor=#82b366;fontFamily=Verdana;" vertex="1" parent="1">
          <mxGeometry x="160" y="480" width="20" height="50" as="geometry" />
        </mxCell>
        <mxCell id="t5k42LL-5QC9sisi8yzs-8" value="" style="endArrow=classic;startArrow=classic;dashed=1;html=1;dashPattern=1 3;strokeWidth=2;fontFamily=Verdana;" edge="1" parent="1">
          <mxGeometry width="50" height="50" relative="1" as="geometry">
            <mxPoint x="230" y="550" as="sourcePoint" />
            <mxPoint x="560" y="390" as="targetPoint" />
          </mxGeometry>
        </mxCell>
        <mxCell id="t5k42LL-5QC9sisi8yzs-9" value="GATEWAY" style="rounded=0;whiteSpace=wrap;html=1;fillColor=#f8cecc;strokeColor=#b85450;fontFamily=Verdana;fontStyle=1;fontSize=20;" vertex="1" parent="1">
          <mxGeometry x="590" y="300" width="200" height="110" as="geometry" />
        </mxCell>
        <mxCell id="t5k42LL-5QC9sisi8yzs-12" value="" style="endArrow=classic;startArrow=classic;dashed=1;html=1;dashPattern=1 3;strokeWidth=2;fontFamily=Verdana;" edge="1" parent="1">
          <mxGeometry width="50" height="50" relative="1" as="geometry">
            <mxPoint x="230" y="360" as="sourcePoint" />
            <mxPoint x="540" y="360" as="targetPoint" />
          </mxGeometry>
        </mxCell>
        <mxCell id="t5k42LL-5QC9sisi8yzs-13" value="" style="endArrow=classic;startArrow=classic;dashed=1;html=1;dashPattern=1 3;strokeWidth=2;fontFamily=Verdana;" edge="1" parent="1">
          <mxGeometry width="50" height="50" relative="1" as="geometry">
            <mxPoint x="240" y="160" as="sourcePoint" />
            <mxPoint x="560" y="320" as="targetPoint" />
          </mxGeometry>
        </mxCell>
        <mxCell id="t5k42LL-5QC9sisi8yzs-14" value="" style="verticalLabelPosition=bottom;shadow=0;dashed=0;align=center;html=1;verticalAlign=top;shape=mxgraph.electrical.radio.aerial_-_antenna_2;fillColor=#f8cecc;strokeColor=#b85450;fontFamily=Verdana;" vertex="1" parent="1">
          <mxGeometry x="600" y="250" width="20" height="50" as="geometry" />
        </mxCell>
      </root>
    </mxGraphModel>
  </diagram>
</mxfile>
